# xmcd
#
# Track frame offsets:
# 150
# 15461
# 32124
# 46862
# 68754
# 87119
# 116011
# 128771
# 153985
# 171608
# 185896
# 202279
# 219574
# 235957
# 252784
#
# Disc length: 3610 seconds
#
#
# Revision: 0
# Processed by: cddbd v1.5.2PL0 Copyright (c) Steve Scherf et al.
# Submitted via: FreeRIP 2.96 
#
DISCID=d60e180f
DTITLE=Various Artist - Jamaican Gold
DYEAR=2003
DGENRE=Reggae
TTITLE0=Don Drummond - Man In The Street
TTITLE1=Tommy McCook - Green Mango
TTITLE2=Scotty - Draw Your Brakes
TTITLE3=Toots and The Maytals - Funky Kingston
TTITLE4=The Mexicano - Move Up Starsky
TTITLE5=Horace Andy - Lonely Woman
TTITLE6=Ramon and The Crystalites - Golden Chickens
TTITLE7=Junior Delahaye - Love
TTITLE8=Dennis Brown - Emanuel
TTITLE9=Peter Tosh - Brand New Second-Hand
TTITLE10=Big Youth - Screaming Target
TTITLE11=Bunny Lion - Rat Trap
TTITLE12=Prince Far I - Coming In From The Rock
TTITLE13=Abyssinians - Mandela
TTITLE14=Gregory Isaacs - Night Nurse
EXTD=Rare Trax 26
EXTT0=
EXTT1=
EXTT2=
EXTT3=
EXTT4=
EXTT5=
EXTT6=
EXTT7=
EXTT8=
EXTT9=
EXTT10=
EXTT11=
EXTT12=
EXTT13=
EXTT14=
PLAYORDER=
